# xmcd
#
# Track frame offsets: 
#        150
#        11682
#        24825
#        34450
#        44730
#        56710
#        67295
#        78997
#        93775
#        104615
#        117620
#        130755
#        140137
#        151260
#        164642
#        179277
#        190355
#        201412
#        213472
#        223397
#        237515
#        248260
#        259335
#
# Disc length: 3600 seconds
#
# Revision: 6
# Processed by: cddbd v1.5.2PL0 Copyright (c) Steve Scherf et al.
# Submitted via: ExactAudioCopyFreeDBPlugin 1.0
#
DISCID=680e0e17
DTITLE=Irma Thomas - Sweet Soul Queen of New Orleans:  The Irma Thomas
DTITLE=Collection
DYEAR=1996
DGENRE=Soul
TTITLE0=Cry On
TTITLE1=I Done Got Over It
TTITLE2=It's Raining
TTITLE3=Hittin' on Nothing
TTITLE4=Ruler of My Heart
TTITLE5=Wish Someone Would Care
TTITLE6=Break-A-Way
TTITLE7=I Need Your Love So Bad
TTITLE8=While the City Sleeps
TTITLE9=Time is on My Side
TTITLE10=Anyone Who Knows What Love Is (Will Understand)
TTITLE11=Moments to Remember
TTITLE12=Straight from the Heart
TTITLE13=Take a Look
TTITLE14=It's a Man's Woman's World (Pt. 1)
TTITLE15=Long After the Night is All Over
TTITLE16=Times Have Changed
TTITLE17=He's My Guy
TTITLE18=What Are You Trying to Do
TTITLE19=Nobody Wants to Hear Nobody's Troubles
TTITLE20=The Hurt's All Gone
TTITLE21=I'm Gonna Cry Till My Tears Run Dry
TTITLE22=It's Starting to Get to Me Now
EXTD=YEAR: 1996
EXTT0=
EXTT1=
EXTT2=
EXTT3=
EXTT4=
EXTT5=
EXTT6=
EXTT7=
EXTT8=
EXTT9=
EXTT10=
EXTT11=
EXTT12=
EXTT13=
EXTT14=
EXTT15=
EXTT16=
EXTT17=
EXTT18=
EXTT19=
EXTT20=
EXTT21=
EXTT22=
PLAYORDER=
